# xmcd
#
# Track frame offsets: 
#        150
#        18530
#        26944
#        37951
#        51651
#        66964
#        85536
#        100283
#        115726
#
# Disc length: 1718 seconds
#
# Revision: 0
# Processed by: cddbd v1.5.2PL0 Copyright (c) Steve Scherf et al.
# Submitted via: ExactAudioCopy v0.95b4
#
DISCID=7506b409
DTITLE=Tracy Lee Nelson - A Hot Cup of Blues
DYEAR=2003
DGENRE=Blues
TTITLE0=Instrumental
TTITLE1=Directions
TTITLE2=Older
TTITLE3=Working Man Blues
TTITLE4=HunWut
TTITLE5=Tonight
TTITLE6=Strong Again
TTITLE7=Willie Nelson
TTITLE8=Enyaach Equll (I'm a long way from home)
EXTD=
EXTT0=
EXTT1=
EXTT2=
EXTT3=
EXTT4=
EXTT5=
EXTT6=
EXTT7=
EXTT8=
PLAYORDER=
